HIERARCHY
ROOT Hips
{
	OFFSET -3.958830 18.904000 13.208200
	CHANNELS 6 Xposition Yposition Zposition Zrotation Yrotation Xrotation 
	JOINT LHipJoint
	{
		OFFSET 0.000000 0.000000 0.000000
		CHANNELS 3 Zrotation Yrotation Xrotation
		JOINT LeftUpLeg
		{
			OFFSET 1.800000 -1.400000 0.085000
			CHANNELS 3 Zrotation Yrotation Xrotation
			JOINT LeftLeg
			{
				OFFSET 2.215000 -6.000000 0.000000
				CHANNELS 3 Zrotation Yrotation Xrotation
				JOINT LeftFoot
				{
					OFFSET 2.500000 -6.900000 0.000000
					CHANNELS 3 Zrotation Yrotation Xrotation
					JOINT LeftToeBase
					{
						OFFSET 0.200000 -0.500000 1.950000
						CHANNELS 3 Zrotation Yrotation Xrotation
						End Site
						{
							OFFSET 0.000000 0.000000 0.000000
						}
					}
				}
			}
		}
	}
	JOINT RHipJoint
	{
		OFFSET 0.000000 0.000000 0.000000
		CHANNELS 3 Zrotation Yrotation Xrotation
		JOINT RightUpLeg
		{
			OFFSET -1.800000 -1.400000 0.085000
			CHANNELS 3 Zrotation Yrotation Xrotation
			JOINT RightLeg
			{
				OFFSET -2.215000 -6.000000 0.000000
				CHANNELS 3 Zrotation Yrotation Xrotation
				JOINT RightFoot
				{
					OFFSET -2.500000 -6.900000 0.000000
					CHANNELS 3 Zrotation Yrotation Xrotation
					JOINT RightToeBase
					{
						OFFSET -0.200000 -0.500000 1.950000
						CHANNELS 3 Zrotation Yrotation Xrotation
						End Site
						{
							OFFSET 0.000000 0.000000 0.000000
						}
					}
				}
			}
		}
	}
	JOINT LowerBack
	{
		OFFSET 0.000000 0.000000 0.000000
		CHANNELS 3 Zrotation Yrotation Xrotation
		JOINT Spine
		{
			OFFSET -0.087000 1.940000 -0.288900
			CHANNELS 3 Zrotation Yrotation Xrotation
			JOINT Spine1
			{
				OFFSET 0.000000 1.950000 0.060000
				CHANNELS 3 Zrotation Yrotation Xrotation
				JOINT Neck
				{
					OFFSET 0.000000 0.000000 0.000000
					CHANNELS 3 Zrotation Yrotation Xrotation
					JOINT Neck1
					{
						OFFSET 0.000000 1.600000 0.340000
						CHANNELS 3 Zrotation Yrotation Xrotation
						JOINT Head
						{
							OFFSET 0.000000 1.667000 -0.240000
							CHANNELS 3 Zrotation Yrotation Xrotation
							End Site
							{
								OFFSET 0.000000 0.000000 0.000000
							}
						}
					}
				}
				JOINT LeftShoulder
				{
					OFFSET 0.000000 0.000000 0.000000
					CHANNELS 3 Zrotation Yrotation Xrotation
					JOINT LeftArm
					{
						OFFSET 2.700000 1.550000 -0.730000
						CHANNELS 3 Zrotation Yrotation Xrotation
						JOINT LeftForeArm
						{
							OFFSET 5.450000 0.000000 0.000000
							CHANNELS 3 Zrotation Yrotation Xrotation
							JOINT LeftHand
							{
								OFFSET 3.450000 0.000000 0.000000
								CHANNELS 3 Zrotation Yrotation Xrotation
								JOINT LeftHandIndex1
								{
									OFFSET 0.750000 0.000000 0.000000
									CHANNELS 3 Zrotation Yrotation Xrotation
									End Site
									{
										OFFSET 0.000000 0.000000 0.000000
									}
								}
							}
						}
					}
				}
				JOINT RightShoulder
				{
					OFFSET 0.000000 0.000000 0.000000
					CHANNELS 3 Zrotation Yrotation Xrotation
					JOINT RightArm
					{
						OFFSET -2.700000 1.550000 -0.730000
						CHANNELS 3 Zrotation Yrotation Xrotation
						JOINT RightForeArm
						{
							OFFSET -5.450000 0.000000 0.000000
							CHANNELS 3 Zrotation Yrotation Xrotation
							JOINT RightHand
							{
								OFFSET -3.450000 0.000000 0.000000
								CHANNELS 3 Zrotation Yrotation Xrotation
								JOINT RightHandIndex1
								{
									OFFSET -0.750000 0.000000 0.000000
									CHANNELS 3 Zrotation Yrotation Xrotation
									End Site
									{
										OFFSET 0.000000 0.000000 0.000000
									}
								}
							}
						}
					}
				}
			}
		}
	}
}
MOTION
Frames: 8
Frame Time: 0.016667
7.260090 16.099980 -6.120080 2.194585 23.878174 1.726264 -15.433667 12.768071 2.921193 16.573025 -1.754311 -19.440620 -12.440712 13.231325 31.347981 0.417549 7.321069 1.763870 0.129690 0.087170 0.173260 18.198955 -8.919774 4.450599 10.120846 12.130269 -28.909658 22.271875 -9.681339 27.842903 -0.696478 -4.640376 2.577762 -0.021870 -0.036320 0.133280 -3.309588 -2.781815 -8.699426 -3.972514 -3.005052 19.301607 -12.739827 -3.062938 -5.334630 3.038325 -6.295791 -7.114803 -13.751662 15.972234 37.115478 -0.602340 13.678360 -10.452150 -30.600615 -0.525126 0.325905 -35.114166 5.443200 -6.562840 0.048949 -17.294692 -0.590054 -3.550065 3.023526 0.386170 -0.113550 0.246840 0.013340 24.842554 3.342620 3.494737 63.699416 -3.207719 -13.373073 38.353534 32.182004 6.289763 2.633644 -1.327524 -0.042890 0.070350 0.009510 -0.080850 
7.186130 16.097200 -6.175340 1.414708 24.234043 1.086312 -15.374969 12.683427 2.846514 16.953068 -1.816481 -19.752120 -11.543426 12.791538 31.311042 0.366602 7.156291 1.796073 0.147870 0.104740 0.211630 18.260326 -8.856839 4.616130 8.029233 13.234385 -30.928139 25.885454 -11.377545 29.699851 -0.877345 -5.326667 2.326217 -0.021060 -0.084440 0.140630 -3.499847 -2.616509 -8.825669 -2.839350 -3.492698 21.089837 -13.904033 -3.413631 -5.599311 3.391605 -5.965968 -7.107818 -13.044052 15.726614 37.957795 -1.799140 14.171020 -11.781210 -31.125432 -0.999389 0.380225 -34.094097 5.661394 -6.826077 0.028495 -17.950333 -0.576562 -3.512180 3.041128 0.411450 -0.136620 0.280910 -0.003060 24.466922 3.336734 3.479284 64.103367 -3.185906 -13.755826 39.107228 32.430852 6.476894 2.641796 -1.326741 -0.030480 0.054430 -0.001330 -0.099440 
7.063110 16.060300 -6.231980 0.822223 24.841433 0.651539 -15.312781 12.527997 2.759213 17.562101 -1.969023 -20.201070 -10.680904 12.358033 31.209040 0.314483 6.990755 1.835412 0.159110 0.117010 0.246350 18.332937 -8.748698 4.822694 3.811450 14.242845 -34.151035 32.067390 -14.284290 31.633966 -1.162072 -6.423204 1.952993 -0.023970 -0.131480 0.141290 -3.703508 -2.404285 -8.967216 -2.084804 -4.308989 23.055309 -15.613750 -4.123729 -5.616721 3.884981 -5.463218 -7.158308 -11.861400 14.757285 38.143138 -3.521710 14.218110 -13.732930 -31.204150 -1.628672 0.637027 -32.721574 6.331018 -7.192090 -0.159014 -19.078118 -0.500804 -3.460806 3.058777 0.437710 -0.159760 0.313660 -0.018010 23.373457 3.328317 3.595425 65.260006 -3.314385 -14.430696 40.778503 33.022346 6.919229 2.646582 -1.329681 -0.022920 0.048580 -0.012590 -0.117610 
6.924780 16.019090 -6.269590 0.321244 25.085705 0.528235 -15.265339 12.297326 2.760689 18.737602 -2.050191 -20.857921 -10.818393 12.447638 31.097729 0.309734 7.005753 1.813992 0.174140 0.135230 0.276230 18.405879 -8.622503 4.987717 -0.407556 14.660890 -37.148594 36.974166 -16.944335 33.236069 -1.411597 -7.356668 1.647274 -0.024460 -0.168570 0.135970 -3.862979 -2.156525 -9.110343 -1.653919 -4.864119 24.676521 -17.259377 -4.646081 -5.789265 4.436208 -4.820313 -7.251676 -10.333573 14.021976 37.934021 -3.909780 14.233970 -15.347800 -30.811722 -1.824472 0.761571 -31.717164 7.163222 -7.481666 -0.488627 -19.855190 -0.383313 -3.408341 3.076514 0.460140 -0.186020 0.342630 -0.024400 21.748079 2.868902 3.881448 65.550105 -4.362027 -15.048251 45.542591 33.811570 8.241444 2.650233 -1.372061 -0.015890 0.045590 -0.030860 -0.128260 
6.789570 15.964810 -6.274340 -0.200249 25.873798 0.286783 -15.239533 12.115040 2.788192 20.176451 -2.041202 -21.699624 -10.673540 12.394497 30.781786 0.301559 6.984773 1.798668 0.161250 0.117250 0.287500 18.454420 -8.531157 5.080604 -4.269890 14.238321 -39.093319 40.609806 -19.573937 34.696586 -1.610229 -8.191865 1.378640 -0.046720 -0.196500 0.146830 -3.971204 -1.994748 -9.223783 -0.909287 -5.268802 25.497849 -18.893052 -4.961857 -5.801376 5.183762 -4.244118 -7.250109 -9.190722 13.121051 38.354341 -5.404870 14.324320 -15.222570 -30.551015 -1.542316 0.532676 -30.936975 7.467867 -7.735678 -0.369590 -20.325137 -0.322244 -3.395715 3.104240 0.455180 -0.187430 0.352500 -0.041230 19.847265 1.927205 4.361520 66.347992 -6.196162 -16.090299 49.359648 34.701235 9.394318 2.644859 -1.418967 -0.000590 0.014090 -0.031560 -0.136350 
6.630060 15.908470 -6.279000 -0.606706 25.780489 0.004703 -15.215779 11.859360 2.874513 21.977270 -1.950171 -23.072089 -10.365689 12.769184 31.846655 0.308993 7.209232 1.690890 0.164810 0.121070 0.321250 18.517445 -8.455343 5.148381 -7.910933 13.713171 -40.487549 42.792625 -22.563069 37.381132 -1.836069 -9.094796 1.094720 -0.052860 -0.235240 0.154800 -4.074831 -1.700124 -9.350935 -0.772093 -5.306658 26.834664 -20.556077 -5.066192 -6.167231 5.886837 -3.265310 -7.008734 -7.053643 12.389778 38.456509 -6.675280 14.954830 -16.776730 -30.334546 -1.075010 0.214442 -29.541459 7.596775 -7.861986 0.139926 -20.702810 -0.289462 -3.380312 3.114992 0.476410 -0.200070 0.381370 -0.060940 18.093381 0.532794 4.617310 66.601449 -8.029238 -16.741749 53.744623 34.115229 10.234111 2.631305 -1.450598 0.004900 -0.000540 -0.037510 -0.157160 
6.451800 15.872080 -6.272400 -1.214102 25.730745 -0.178548 -15.193515 11.609589 3.041281 24.279043 -1.667176 -24.052736 -10.890338 13.105598 31.412595 0.293309 7.371327 1.607625 0.143580 0.080190 0.343640 18.572059 -8.424745 5.125112 -10.667811 13.030905 -40.763675 42.477268 -25.085323 40.751640 -1.995722 -9.855401 0.853470 -0.076770 -0.259660 0.160970 -4.174696 -1.409265 -9.485847 -0.502015 -5.147617 27.782292 -21.950699 -4.925999 -6.791511 6.478285 -2.183060 -7.134005 -5.011186 11.755540 39.206973 -7.458930 15.624340 -17.247740 -30.685150 -1.424007 0.221746 -28.019001 7.847016 -7.901641 1.451811 -20.525499 -0.394710 -3.385966 3.119190 0.505210 -0.206280 0.391220 -0.092120 17.131093 0.017108 5.101509 66.410665 -9.921913 -17.476400 55.958055 32.855244 10.080962 2.618615 -1.448618 -0.007550 -0.018340 -0.022670 -0.187920 
6.256660 15.848160 -6.272680 -1.567483 25.311682 0.313153 -15.174128 11.248734 3.328978 26.647210 -1.287102 -25.099753 -12.829197 14.046204 30.829957 0.360804 7.716618 1.466271 0.136250 0.071750 0.340250 18.645702 -8.337824 5.080731 -12.851837 12.656376 -41.199239 42.072861 -26.091615 42.232316 -2.055518 -10.163887 0.748796 -0.096340 -0.278460 0.174030 -4.273060 -1.060389 -9.637669 -0.301623 -4.728135 28.597503 -23.264412 -4.895451 -8.361945 6.852519 -2.006471 -6.805667 -4.570354 11.646087 38.935869 -7.264230 15.744230 -17.869100 -30.918134 -0.223665 -0.382314 -26.786244 8.176981 -8.095664 2.221304 -21.044972 -0.403571 -3.369007 3.165370 0.513090 -0.221620 0.406230 -0.103340 16.492369 -1.511704 5.503795 66.606899 -12.734881 -18.518525 57.641966 32.833494 10.412023 2.611780 -1.444499 0.009880 -0.042550 -0.017070 -0.187100 
